M48
; DRILL file {KiCad 8.0.6} date 2024-10-29T13:31:23-0700
; FORMAT={-:-/ absolute / inch / decimal}
; #@! TF.CreationDate,2024-10-29T13:31:23-07:00
; #@! TF.GenerationSoftware,Kicad,Pcbnew,8.0.6
; #@! TF.FileFunction,MixedPlating,1,2
FMAT,2
INCH
; #@! TA.AperFunction,Plated,PTH,ViaDrill
T1C0.0157
; #@! TA.AperFunction,Plated,PTH,ComponentDrill
T2C0.0315
; #@! TA.AperFunction,Plated,PTH,ComponentDrill
T3C0.0354
; #@! TA.AperFunction,Plated,PTH,ComponentDrill
T4C0.0394
; #@! TA.AperFunction,Plated,PTH,ComponentDrill
T5C0.1260
%
G90
G05
T1
X5.2953Y-3.1039
X5.2953Y-3.2614
X6.1811Y-2.7898
X6.1811Y-2.9724
T2
X5.1378Y-2.9433
X5.1378Y-3.3433
X5.1378Y-3.6157
X5.1378Y-3.7339
X5.2921Y-2.5394
X5.6921Y-2.5394
X5.7283Y-2.9433
X5.7283Y-3.3433
X5.7283Y-3.6157
X5.7283Y-3.7339
X6.3189Y-2.9433
X6.3189Y-3.3433
X6.3189Y-3.6157
X6.3189Y-3.7339
X6.9094Y-2.9402
X6.9094Y-3.3402
X6.9094Y-3.6157
X6.9094Y-3.7339
X7.5Y-2.9433
X7.5Y-3.3433
X7.5Y-3.6157
X7.5Y-3.7339
X8.0906Y-2.9433
X8.0906Y-3.3433
X8.0906Y-3.6157
X8.0906Y-3.7339
X8.6811Y-2.9433
X8.6811Y-3.3433
X8.6811Y-3.6157
X8.6811Y-3.7339
T3
X5.4331Y-3.6443
X5.4331Y-3.7443
X6.0236Y-3.6443
X6.0236Y-3.7443
X6.6142Y-3.6551
X6.6142Y-3.7551
X7.2047Y-3.6535
X7.2047Y-3.7535
X7.7953Y-3.6443
X7.7953Y-3.7443
X8.3858Y-3.6443
X8.3858Y-3.7443
T4
X5.9236Y-2.5394
X6.0236Y-2.5394
X6.6047Y-2.5331
X6.7047Y-2.5331
X6.8047Y-2.5331
X6.9047Y-2.5331
X7.0047Y-2.5331
X7.1047Y-2.5331
X7.2047Y-2.5331
T5
X4.8228Y-1.9685
X4.8228Y-4.1339
X9.0551Y-1.9685
X9.0551Y-4.1339
M30
