G04 #@! TF.GenerationSoftware,KiCad,Pcbnew,8.0.6*
G04 #@! TF.CreationDate,2024-10-29T13:32:08-07:00*
G04 #@! TF.ProjectId,EE201_final_project_sensor_array,45453230-315f-4666-996e-616c5f70726f,rev?*
G04 #@! TF.SameCoordinates,Original*
G04 #@! TF.FileFunction,Copper,L1,Top*
G04 #@! TF.FilePolarity,Positive*
%FSLAX46Y46*%
G04 Gerber Fmt 4.6, Leading zero omitted, Abs format (unit mm)*
G04 Created by KiCad (PCBNEW 8.0.6) date 2024-10-29 13:32:08*
%MOMM*%
%LPD*%
G01*
G04 APERTURE LIST*
G04 #@! TA.AperFunction,ComponentPad*
%ADD10C,6.400000*%
G04 #@! TD*
G04 #@! TA.AperFunction,ComponentPad*
%ADD11C,1.600000*%
G04 #@! TD*
G04 #@! TA.AperFunction,ComponentPad*
%ADD12R,1.800000X1.800000*%
G04 #@! TD*
G04 #@! TA.AperFunction,ComponentPad*
%ADD13C,1.800000*%
G04 #@! TD*
G04 #@! TA.AperFunction,ComponentPad*
%ADD14O,1.600000X1.600000*%
G04 #@! TD*
G04 #@! TA.AperFunction,ComponentPad*
%ADD15R,1.700000X1.700000*%
G04 #@! TD*
G04 #@! TA.AperFunction,ComponentPad*
%ADD16O,1.700000X1.700000*%
G04 #@! TD*
G04 #@! TA.AperFunction,ViaPad*
%ADD17C,1.000000*%
G04 #@! TD*
G04 #@! TA.AperFunction,Conductor*
%ADD18C,1.000000*%
G04 #@! TD*
G04 APERTURE END LIST*
D10*
G04 #@! TO.P,H4,1,1*
G04 #@! TO.N,GND*
X230000000Y-105000000D03*
G04 #@! TD*
G04 #@! TO.P,H3,1,1*
G04 #@! TO.N,GND*
X122500000Y-105000000D03*
G04 #@! TD*
G04 #@! TO.P,H1,1,1*
G04 #@! TO.N,GND*
X122500000Y-50000000D03*
G04 #@! TD*
D11*
G04 #@! TO.P,R14,1*
G04 #@! TO.N,/A14*
X220500000Y-91840000D03*
G04 #@! TO.P,R14,2*
G04 #@! TO.N,GND*
X220500000Y-94840000D03*
G04 #@! TD*
D12*
G04 #@! TO.P,D6,1,K*
G04 #@! TO.N,GND*
X213000000Y-92565000D03*
D13*
G04 #@! TO.P,D6,2,A*
G04 #@! TO.N,Net-(D1-A)*
X213000000Y-95105000D03*
G04 #@! TD*
D12*
G04 #@! TO.P,D1,1,K*
G04 #@! TO.N,GND*
X138000000Y-92565000D03*
D13*
G04 #@! TO.P,D1,2,A*
G04 #@! TO.N,Net-(D1-A)*
X138000000Y-95105000D03*
G04 #@! TD*
D11*
G04 #@! TO.P,R4,1*
G04 #@! TO.N,VCC*
X175500000Y-74680000D03*
D14*
G04 #@! TO.P,R4,2*
G04 #@! TO.N,/A11*
X175500000Y-84840000D03*
G04 #@! TD*
D15*
G04 #@! TO.P,J1,1,Pin_1*
G04 #@! TO.N,/A8*
X167760000Y-64340000D03*
D16*
G04 #@! TO.P,J1,2,Pin_2*
G04 #@! TO.N,/A9*
X170300000Y-64340000D03*
G04 #@! TO.P,J1,3,Pin_3*
G04 #@! TO.N,/A10*
X172840000Y-64340000D03*
G04 #@! TO.P,J1,4,Pin_4*
G04 #@! TO.N,/A11*
X175380000Y-64340000D03*
G04 #@! TO.P,J1,5,Pin_5*
G04 #@! TO.N,/A12*
X177920000Y-64340000D03*
G04 #@! TO.P,J1,6,Pin_6*
G04 #@! TO.N,/A13*
X180460000Y-64340000D03*
G04 #@! TO.P,J1,7,Pin_7*
G04 #@! TO.N,/A14*
X183000000Y-64340000D03*
G04 #@! TD*
D11*
G04 #@! TO.P,R15,1*
G04 #@! TO.N,VCC*
X144580000Y-64500000D03*
D14*
G04 #@! TO.P,R15,2*
G04 #@! TO.N,Net-(D1-A)*
X134420000Y-64500000D03*
G04 #@! TD*
D12*
G04 #@! TO.P,D3,1,K*
G04 #@! TO.N,GND*
X168000000Y-92840000D03*
D13*
G04 #@! TO.P,D3,2,A*
G04 #@! TO.N,Net-(D1-A)*
X168000000Y-95380000D03*
G04 #@! TD*
D11*
G04 #@! TO.P,R5,1*
G04 #@! TO.N,VCC*
X190500000Y-74760000D03*
D14*
G04 #@! TO.P,R5,2*
G04 #@! TO.N,/A12*
X190500000Y-84920000D03*
G04 #@! TD*
D12*
G04 #@! TO.P,D2,1,K*
G04 #@! TO.N,GND*
X153000000Y-92565000D03*
D13*
G04 #@! TO.P,D2,2,A*
G04 #@! TO.N,Net-(D1-A)*
X153000000Y-95105000D03*
G04 #@! TD*
D11*
G04 #@! TO.P,R13,1*
G04 #@! TO.N,/A13*
X205500000Y-91840000D03*
G04 #@! TO.P,R13,2*
G04 #@! TO.N,GND*
X205500000Y-94840000D03*
G04 #@! TD*
G04 #@! TO.P,R8,1*
G04 #@! TO.N,/A8*
X130500000Y-91840000D03*
G04 #@! TO.P,R8,2*
G04 #@! TO.N,GND*
X130500000Y-94840000D03*
G04 #@! TD*
G04 #@! TO.P,R2,1*
G04 #@! TO.N,VCC*
X145500000Y-74760000D03*
D14*
G04 #@! TO.P,R2,2*
G04 #@! TO.N,/A9*
X145500000Y-84920000D03*
G04 #@! TD*
D11*
G04 #@! TO.P,R10,1*
G04 #@! TO.N,/A10*
X160500000Y-91840000D03*
G04 #@! TO.P,R10,2*
G04 #@! TO.N,GND*
X160500000Y-94840000D03*
G04 #@! TD*
D15*
G04 #@! TO.P,J2,1,Pin_1*
G04 #@! TO.N,VCC*
X150460000Y-64500000D03*
D16*
G04 #@! TO.P,J2,2,Pin_2*
G04 #@! TO.N,GND*
X153000000Y-64500000D03*
G04 #@! TD*
D11*
G04 #@! TO.P,R7,1*
G04 #@! TO.N,VCC*
X220500000Y-74760000D03*
D14*
G04 #@! TO.P,R7,2*
G04 #@! TO.N,/A14*
X220500000Y-84920000D03*
G04 #@! TD*
D12*
G04 #@! TO.P,D5,1,K*
G04 #@! TO.N,GND*
X198000000Y-92565000D03*
D13*
G04 #@! TO.P,D5,2,A*
G04 #@! TO.N,Net-(D1-A)*
X198000000Y-95105000D03*
G04 #@! TD*
D11*
G04 #@! TO.P,R12,1*
G04 #@! TO.N,/A12*
X190500000Y-91840000D03*
G04 #@! TO.P,R12,2*
G04 #@! TO.N,GND*
X190500000Y-94840000D03*
G04 #@! TD*
G04 #@! TO.P,R1,1*
G04 #@! TO.N,VCC*
X130500000Y-74760000D03*
D14*
G04 #@! TO.P,R1,2*
G04 #@! TO.N,/A8*
X130500000Y-84920000D03*
G04 #@! TD*
D11*
G04 #@! TO.P,R6,1*
G04 #@! TO.N,VCC*
X205500000Y-74760000D03*
D14*
G04 #@! TO.P,R6,2*
G04 #@! TO.N,/A13*
X205500000Y-84920000D03*
G04 #@! TD*
D11*
G04 #@! TO.P,R3,1*
G04 #@! TO.N,VCC*
X160500000Y-74760000D03*
D14*
G04 #@! TO.P,R3,2*
G04 #@! TO.N,/A10*
X160500000Y-84920000D03*
G04 #@! TD*
D11*
G04 #@! TO.P,R11,1*
G04 #@! TO.N,/A11*
X175500000Y-91840000D03*
G04 #@! TO.P,R11,2*
G04 #@! TO.N,GND*
X175500000Y-94840000D03*
G04 #@! TD*
G04 #@! TO.P,R9,1*
G04 #@! TO.N,/A9*
X145500000Y-91840000D03*
G04 #@! TO.P,R9,2*
G04 #@! TO.N,GND*
X145500000Y-94840000D03*
G04 #@! TD*
D12*
G04 #@! TO.P,D4,1,K*
G04 #@! TO.N,GND*
X183000000Y-92800000D03*
D13*
G04 #@! TO.P,D4,2,A*
G04 #@! TO.N,Net-(D1-A)*
X183000000Y-95340000D03*
G04 #@! TD*
D10*
G04 #@! TO.P,H2,1,1*
G04 #@! TO.N,GND*
X230000000Y-50000000D03*
G04 #@! TD*
D17*
G04 #@! TO.N,GND*
X157000000Y-75500000D03*
X157000000Y-70860000D03*
G04 #@! TO.N,Net-(D1-A)*
X134500000Y-82840000D03*
X134500000Y-78840000D03*
G04 #@! TD*
D18*
G04 #@! TO.N,GND*
X153000000Y-66860000D02*
X157000000Y-70860000D01*
X157000000Y-75500000D02*
X157000000Y-81000000D01*
X153000000Y-85000000D02*
X153000000Y-92565000D01*
X157000000Y-81000000D02*
X153000000Y-85000000D01*
X153000000Y-64500000D02*
X153000000Y-66860000D01*
G04 #@! TO.N,Net-(D1-A)*
X182000000Y-96340000D02*
X168960000Y-96340000D01*
X184000000Y-96340000D02*
X183000000Y-95340000D01*
X137340000Y-95105000D02*
X138000000Y-95105000D01*
X139235000Y-96340000D02*
X138000000Y-95105000D01*
X134420000Y-78760000D02*
X134500000Y-78840000D01*
X153000000Y-95105000D02*
X152735000Y-95105000D01*
X152735000Y-95105000D02*
X151500000Y-96340000D01*
X134420000Y-64500000D02*
X134420000Y-78760000D01*
X167040000Y-96340000D02*
X154235000Y-96340000D01*
X183000000Y-95340000D02*
X182000000Y-96340000D01*
X168960000Y-96340000D02*
X168000000Y-95380000D01*
X213000000Y-95105000D02*
X211765000Y-96340000D01*
X196765000Y-96340000D02*
X184000000Y-96340000D01*
X154235000Y-96340000D02*
X153000000Y-95105000D01*
X134500000Y-92265000D02*
X137340000Y-95105000D01*
X198000000Y-95105000D02*
X196765000Y-96340000D01*
X168000000Y-95380000D02*
X167040000Y-96340000D01*
X211765000Y-96340000D02*
X199235000Y-96340000D01*
X199235000Y-96340000D02*
X198000000Y-95105000D01*
X151500000Y-96340000D02*
X139235000Y-96340000D01*
X134500000Y-82840000D02*
X134500000Y-92265000D01*
G04 #@! TO.N,/A12*
X190500000Y-84920000D02*
X190500000Y-91840000D01*
X177920000Y-72340000D02*
X190500000Y-84920000D01*
X177920000Y-64340000D02*
X177920000Y-72340000D01*
G04 #@! TO.N,/A10*
X160500000Y-84920000D02*
X160500000Y-91840000D01*
X172840000Y-64340000D02*
X172840000Y-72580000D01*
X172840000Y-72580000D02*
X160500000Y-84920000D01*
G04 #@! TO.N,/A11*
X175380000Y-72438679D02*
X177000000Y-74058679D01*
X177000000Y-83340000D02*
X175500000Y-84840000D01*
X175380000Y-64340000D02*
X175380000Y-72438679D01*
X175500000Y-84840000D02*
X175500000Y-91840000D01*
X177000000Y-74058679D02*
X177000000Y-83340000D01*
G04 #@! TO.N,/A8*
X160040000Y-72060000D02*
X167760000Y-64340000D01*
X130500000Y-84920000D02*
X143360000Y-72060000D01*
X130500000Y-84920000D02*
X130500000Y-91840000D01*
X143360000Y-72060000D02*
X160040000Y-72060000D01*
G04 #@! TO.N,/A13*
X189380000Y-73260000D02*
X193840000Y-73260000D01*
X205500000Y-84920000D02*
X205500000Y-91840000D01*
X180460000Y-64340000D02*
X189380000Y-73260000D01*
X193840000Y-73260000D02*
X205500000Y-84920000D01*
G04 #@! TO.N,/A9*
X170300000Y-65542081D02*
X162582081Y-73260000D01*
X162582081Y-73260000D02*
X157160000Y-73260000D01*
X170300000Y-64340000D02*
X170300000Y-65542081D01*
X145500000Y-84920000D02*
X145500000Y-91840000D01*
X157160000Y-73260000D02*
X145500000Y-84920000D01*
G04 #@! TO.N,/A14*
X220500000Y-84920000D02*
X220500000Y-91840000D01*
X183000000Y-64340000D02*
X199920000Y-64340000D01*
X199920000Y-64340000D02*
X220500000Y-84920000D01*
G04 #@! TD*
M02*
